<svg width="283" height="283" xmlns="http://www.w3.org/2000/svg">

 <g>
  <title>Layer 1</title>
  <rect stroke="#000" rx="30" id="svg_3" height="282.99999" width="282.99999" y="0" x="0" fill="#feca4f"/>
  <path fill="#116c73" d="m39.82741,91.71628c-0.9,0.973 -2.5,4.446 -3.543,7.642c-1.806,5.558 -1.876,6.322 -1.459,14.172c0.486,8.753 -0.069,11.81 -2.779,14.519c-1.389,1.389 -6.53,9.379 -7.711,11.949a23.112,23.112 0 0 0 -2.293,10.074c0,5.071 0.695,5.488 7.017,4.168c7.85,-1.667 10.768,-2.779 23.551,-8.892c5.488,-2.64 6.391,-2.918 12.783,-3.126c6.947,-0.278 12.227,0.625 12.227,2.015a6.589,6.589 0 0 1 -1.389,2.5c-2.154,2.709 -1.876,7.5 0.625,11.463c3.821,6.044 11.949,8.059 21.953,5.419c3.057,-0.764 6.669,-1.737 7.989,-2.084a8.916,8.916 0 0 1 7.642,1.389a63.3,63.3 0 0 0 12.852,6.461c6.044,2.223 9.031,2.64 9.031,1.181c0.069,-3.057 1.181,-4.1 6.808,-6.322c3.126,-1.181 6.808,-2.5 8.128,-2.848a84.569,84.569 0 0 1 18.618,-3.126l7.086,-0.417l2.431,2.709a17.329,17.329 0 0 1 2.432,3.2c0.069,1.25 -1.737,0.347 -3.751,-1.876c-2.154,-2.293 -2.5,-2.431 -6.6,-2.431c-3.821,0 -4.307,0.139 -3.543,1.042c0.973,1.181 0.695,1.25 -1.528,0.417c-2.987,-1.112 -17.785,2.64 -25.01,6.252c-3.4,1.737 -3.4,3.613 -0.208,7.433c3.612,4.238 8.753,6.391 15.075,6.391c6.044,0 10.7,-1.876 16.117,-6.53c6.044,-5.071 7.086,-5.141 2.431,-0.069l-2.918,3.126l3.2,0a19.829,19.829 0 0 0 5.071,-0.695c2.709,-1.042 3.682,0.278 1.042,1.389c-2.5,1.042 -3.126,2.64 -2.5,6.669c0.556,3.751 2.154,7.017 3.821,7.92c1.042,0.556 1.737,0.139 3.821,-2.223c1.806,-2.223 2.362,-3.4 2.084,-4.585c-0.417,-1.667 0.764,-4.585 1.6,-4.029c0.278,0.208 0.9,-0.695 1.389,-1.876c2.223,-5.488 2.362,-5.627 6.739,-6.252c2.293,-0.347 11.046,-0.695 19.452,-0.834c14.45,-0.139 15.7,-0.278 23.62,-2.362a105.419,105.419 0 0 1 12.5,-2.5c5.766,-0.625 7.294,-1.459 7.225,-4.1c0,-1.181 -0.208,-1.667 -0.417,-1.112a4.569,4.569 0 0 1 -1.181,1.6c-1.737,1.181 -11.741,-1.6 -17.785,-4.863c-5.21,-2.848 -5.28,-2.987 -2.848,-7.294c5.7,-10.073 19.244,-20.286 20.424,-15.353c0.208,0.973 0.417,0.764 0.834,-0.695c0.556,-2.223 -0.486,-3.96 -2.57,-3.96c-0.695,0 -2.918,-1.042 -4.932,-2.293a135.65,135.65 0 0 0 -16.117,-8.2c-0.764,-0.278 -3.821,-1.389 -6.878,-2.362c-2.987,-1.042 -7.086,-2.57 -9.031,-3.4a64.127,64.127 0 0 0 -5.975,-2.431c-1.32,-0.486 -3.057,-1.181 -3.821,-1.459c-6.391,-2.57 -21.189,-5.558 -27.441,-5.558c-3.89,0 -4.932,-0.278 -5.7,-1.25c-0.486,-0.764 -1.945,-2.5 -3.2,-3.96c-2.154,-2.431 -2.432,-2.57 -4.029,-1.667c-1.112,0.556 -1.945,0.625 -2.223,0.208c-0.278,-0.347 -2.223,-2.015 -4.307,-3.682c-3.126,-2.431 -4.168,-2.918 -5.836,-2.57a26.644,26.644 0 0 1 -4.307,0.417c-1.667,0 -2.362,0.347 -2.709,1.389c-0.278,0.973 -1.042,1.389 -2.432,1.389c-1.32,0 -2.015,0.417 -2.293,1.389a3.959,3.959 0 0 1 -2.154,2.084c-0.973,0.347 -1.806,0.973 -1.806,1.389s-0.764,1.042 -1.737,1.389a2.4,2.4 0 0 0 -1.737,2.084c0,0.764 -0.486,1.389 -1.042,1.389a6.175,6.175 0 0 0 -2.987,1.876c-2.709,2.779 -5.905,2.57 -10.282,-0.556a60.222,60.222 0 0 0 -16.187,-8.2c-3.474,-1.112 -12.644,-0.973 -15.631,0.278c-5.21,2.154 -9.448,8.823 -9.448,14.8c0,1.806 0.625,2.987 2.848,5.21l2.855,2.914l-2.709,0.347c-4.1,0.556 -11.81,-0.556 -15.353,-2.223c-4.724,-2.223 -8.962,-6.808 -14.033,-15.353c-5.21,-8.684 -11.393,-15.77 -13.755,-15.77a5.1,5.1 0 0 0 -3.196,1.736zm15.562,17.854a0.5,0.5 0 0 1 -0.486,0.556c-0.834,-0.069 -6.878,-9.1 -7.5,-11.115c-0.278,-0.973 1.389,0.9 3.751,4.168c2.288,3.265 4.165,6.113 4.234,6.391l0.001,0zm55.368,-7.017c1.181,0.486 1.6,0.9 1.042,1.112a3.5,3.5 0 0 1 -2.432,-0.347a16.617,16.617 0 0 0 -2.57,-1.042c-0.695,-0.278 -0.486,-0.417 0.486,-0.417a9.924,9.924 0 0 1 3.474,0.694zm-60.927,7.226c0,0.347 -1.25,-0.556 -2.779,-2.084c-1.459,-1.528 -2.709,-3.265 -2.709,-3.821s1.25,0.347 2.709,2.084c1.529,1.736 2.779,3.403 2.779,3.821zm60.3,-4.029c3.126,1.6 3.2,1.667 0.834,1.25a8.575,8.575 0 0 1 -3.057,-1.112a4.1,4.1 0 0 0 -2.292,-0.625c-0.9,0 -1.6,-0.278 -1.6,-0.625s-0.556,-0.834 -1.181,-0.973c-0.695,-0.139 -0.069,-0.139 1.389,0a23.329,23.329 0 0 1 5.908,2.084l-0.001,0.001zm-7.5,0.208c0,0.347 0.695,0.695 1.6,0.695a9.344,9.344 0 0 1 3.265,1.042c2.987,1.737 -0.556,1.181 -4.516,-0.695c-2.5,-1.181 -3.057,-1.667 -1.876,-1.667c0.831,-0.07 1.526,0.208 1.526,0.624l0.001,0.001zm59.606,-0.208a17.563,17.563 0 0 1 -3.821,0c-1.112,-0.139 -0.208,-0.278 1.876,-0.278s2.986,0.138 1.944,0.277l0.001,0.001zm-66.067,1.32a1.407,1.407 0 0 1 -1.32,0.069c-0.556,-0.208 -0.347,-0.417 0.417,-0.417c0.763,-0.07 1.176,0.138 0.902,0.347l0.001,0.001zm5.488,1.459c2.015,0.834 2.362,1.25 1.389,1.459a2.473,2.473 0 0 1 -2.015,-0.486a4.049,4.049 0 0 0 -2.431,-0.764c-0.9,0 -1.389,-0.278 -1.181,-0.695c0.555,-0.974 1.111,-0.905 4.237,0.485l0.001,0.001zm-52.451,7.294c0.347,0.695 0.486,1.25 0.278,1.25c-0.764,0 -7.294,-6.739 -7.294,-7.572c-0.001,-0.973 6.043,4.515 7.015,6.321l0.001,0.001zm49.255,-5c0,0.347 -0.625,0.695 -1.32,0.695a2.431,2.431 0 0 1 -1.806,-0.695c-0.278,-0.417 0.347,-0.695 1.32,-0.695s1.805,0.275 1.805,0.692l0.001,0.003zm2.57,1.112a1.407,1.407 0 0 1 -1.32,0.069c-0.556,-0.208 -0.347,-0.417 0.417,-0.417c0.764,-0.072 1.181,0.136 0.903,0.345l0,0.003zm-4.446,1.459a5.25,5.25 0 0 1 -2.084,0c-0.695,-0.208 -0.278,-0.347 0.834,-0.347c1.18,-0.004 1.666,0.132 1.25,0.344l0,0.003zm20.424,1.32a1.407,1.407 0 0 1 -1.32,0.069c-0.556,-0.208 -0.347,-0.417 0.417,-0.417c0.764,-0.072 1.181,0.136 0.903,0.345l0,0.003zm-21.328,0.973c0,0.347 -1.042,0.695 -2.362,0.695s-2.64,-0.347 -2.848,-0.695c-0.278,-0.417 0.695,-0.695 2.362,-0.695c1.598,-0.003 2.848,0.274 2.848,0.687l0,0.008zm18.063,0c0,0.347 -0.139,0.695 -0.278,0.695c-0.208,0 -0.556,-0.347 -0.764,-0.695c-0.208,-0.417 -0.069,-0.695 0.278,-0.695a0.714,0.714 0 0 1 0.762,0.687l0.002,0.008zm-68.776,2.223c3.057,2.084 3.613,3.682 0.834,2.293c-2.223,-1.112 -4.932,-3.821 -3.821,-3.821a9.781,9.781 0 0 1 2.986,1.524l0.001,0.004zm48.838,0.347a11.772,11.772 0 0 1 -3.126,0c-0.9,-0.139 -0.208,-0.278 1.528,-0.278s2.434,0.136 1.598,0.275l0,0.003zm95.662,3.335a3,3 0 0 1 -1.667,1.042c-1.181,0 -6.322,5.488 -7.711,8.267c-2.015,4.029 -1.25,10.421 2.293,17.715c1.806,3.751 2.918,7.086 2.918,8.614c0,5 6.878,12.783 8.684,9.865c0.208,-0.417 1.459,-0.695 2.779,-0.695s2.57,0.278 2.779,0.695c0.278,0.417 -0.695,0.695 -2.362,0.695c-2.779,0 -3.751,0.834 -1.945,1.667c0.417,0.208 -0.278,0.208 -1.6,0c-4.932,-0.834 -9.726,-6.461 -9.726,-11.393c0,-1.181 -1.389,-4.724 -3.265,-8.2c-3.2,-5.836 -3.335,-6.252 -3.335,-11.949c0,-8.545 2.64,-13.2 9.17,-16.4c3.543,-1.663 4.446,-1.663 2.987,0.073l0.001,0.004zm-131.023,1.6c-1.459,0.9 -4.446,7.156 -4.446,9.17c0,1.181 -0.278,2.084 -0.695,2.084c-0.973,0 -0.9,-2.223 0.208,-5.7c0.9,-2.987 4.377,-7.364 5.21,-6.53a0.674,0.674 0 0 1 -0.28,0.97l0.003,0.006zm-11.81,0.834c1.112,1.112 -1.806,0.764 -3.751,-0.417l-1.737,-1.042l2.432,0.417a7.574,7.574 0 0 1 3.056,1.036l0,0.006zm-2.223,4.307c-0.556,0.556 -1.181,0.556 -2.362,0c-1.528,-0.695 -1.459,-0.764 0.834,-0.764c1.806,-0.076 2.153,0.133 1.528,0.758l0,0.006zm189.517,4.1c0,0.973 -0.486,1.32 -1.737,1.32s-1.737,-0.347 -1.737,-1.32a1.846,1.846 0 0 1 0.9,-1.667a1.779,1.779 0 0 1 2.574,1.66l0,0.007zm-190.559,0.417a28.406,28.406 0 0 1 -4.863,0c-1.181,-0.139 0,-0.278 2.64,-0.278c2.709,-0.007 3.682,0.132 2.223,0.271l0,0.007zm0.556,3.613c-0.417,0.347 -3.057,0.834 -5.905,1.042q-5.315,0.417 -2.918,-0.208a8.546,8.546 0 0 0 2.709,-1.042a10.843,10.843 0 0 1 3.612,-0.417c1.946,-0.008 2.849,0.27 2.501,0.617l0.001,0.008zm157.283,14.1a24.966,24.966 0 0 0 8.545,11.393c2.918,1.945 6.183,3.265 12.713,4.863l2.084,0.556l-2.431,0.278c-4.863,0.486 -12.366,-2.64 -16.4,-6.947c-3.96,-4.238 -4.377,-4.863 -5.905,-9.031c-1.32,-3.751 -1.737,-9.17 -0.834,-11.463c0.347,-0.834 0.695,0.278 1.042,3.265a43.827,43.827 0 0 0 1.185,7.081l0.001,0.005zm-159.02,-9.314c0,0.764 -5.349,2.293 -9.379,2.64l-3.474,0.347l3.474,-1.112c1.945,-0.625 4.238,-1.389 5.21,-1.737c2.293,-0.764 4.169,-0.833 4.169,-0.138zm191.393,3.4c-3.821,3.821 -6.252,8.545 -5.627,10.976a4.045,4.045 0 0 0 2.848,2.5c2.918,1.112 3.126,2.015 0.417,2.015c-2.779,0 -5.627,-2.431 -5.627,-4.863c0,-2.987 2.709,-7.433 6.878,-11.254c4.723,-4.303 5.487,-3.816 1.111,0.63l0,-0.004zm-192.088,1.459c0,0.556 -2.292,1.6 -7.156,3.2c-3.821,1.25 -5.627,1.389 -5,0.417a0.765,0.765 0 0 1 1.042,-0.347a0.765,0.765 0 0 0 1.042,-0.347a2.431,2.431 0 0 1 1.806,-0.695a7.508,7.508 0 0 0 2.918,-0.834c0.834,-0.417 2.015,-1.042 2.57,-1.32c1.389,-0.696 2.778,-0.765 2.778,-0.07l0,-0.004zm53.7,3.4c2.362,1.32 3.96,2.64 3.96,3.265c0,0.347 -7.572,-3.474 -8.267,-4.168c-0.833,-0.826 2.432,-0.131 4.308,0.911l-0.001,-0.008zm-5.905,5.558a9.3,9.3 0 0 1 -2.779,0c-0.9,-0.139 -0.347,-0.278 1.181,-0.278c1.53,-0.062 2.224,0.077 1.599,0.285l-0.001,-0.007zm3.612,2.293c0,0.347 -1.112,0.695 -2.5,0.695c-1.459,0 -2.293,-0.278 -2.015,-0.695c0.208,-0.417 1.32,-0.695 2.5,-0.695c1.113,0.007 2.017,0.285 2.017,0.702l-0.002,-0.007zm95.87,-0.069c0,0.9 6.878,4.238 8.753,4.238c0.9,0 1.667,0.278 1.667,0.695c0,1.25 -4.446,0.695 -7.225,-0.9s-5.419,-4.655 -3.96,-4.655a0.707,0.707 0 0 1 0.767,0.629l-0.002,-0.007zm-101.635,1.189a1.407,1.407 0 0 1 -1.32,0.069c-0.556,-0.208 -0.347,-0.417 0.417,-0.417c0.765,-0.07 1.181,0.138 0.903,0.348zm7.711,1.459a9.3,9.3 0 0 1 -2.779,0c-0.9,-0.139 -0.347,-0.278 1.181,-0.278c1.529,-0.071 2.224,0.068 1.599,0.276l-0.001,0.002zm2.918,2.293c0,0.347 -0.9,0.695 -2.084,0.695c-1.112,0 -2.084,-0.347 -2.084,-0.695c0,-0.417 0.973,-0.695 2.084,-0.695c1.181,-0.002 2.085,0.276 2.085,0.693l-0.001,0.002zm68.082,-0.069c0,0.347 -1.181,0.764 -2.57,0.973c-1.459,0.208 -3.751,0.695 -5.071,1.042c-1.32,0.417 -3.821,1.112 -5.558,1.528a23.847,23.847 0 0 0 -4.516,1.528l-1.389,0.695l1.389,-1.389c1.528,-1.459 7.294,-3.612 9.8,-3.612a2.74,2.74 0 0 0 2.015,-0.695c0.551,-0.837 5.9,-0.906 5.9,-0.072l0,0.002zm2.779,1.459a63.762,63.762 0 0 1 -5.905,2.5c-2.64,0.973 -5.488,2.015 -6.252,2.362a77.891,77.891 0 0 1 -7.85,2.779c-1.112,0 4.724,-3.335 8.2,-4.655c8.195,-3.128 14.517,-4.728 11.807,-2.989l0,0.003zm27.441,0.695l2.779,0.417l-2.64,0.556c-2.015,0.347 -3.126,0.208 -4.377,-0.625c-2.084,-1.389 -2.154,-2.015 -0.07,-1.32a41.945,41.945 0 0 0 4.308,0.969l0,0.003zm-26.051,1.873a3.7,3.7 0 0 0 -1.389,0.9c-0.417,0.486 -5.488,2.918 -9.726,4.585c-4.932,1.945 -4.655,0.556 0.347,-1.806c6.808,-3.2 9.031,-4.029 10.768,-4.029c0.903,0.002 0.903,0.002 0,0.35zm-1.389,4.377c-2.432,1.876 -9.1,5.071 -9.587,4.585c-0.486,-0.556 -0.417,-0.625 4.724,-3.474c4.932,-2.709 7.778,-3.335 4.862,-1.111l0.001,0zm3.543,1.667c-1.876,1.945 -5.975,4.1 -7.156,3.751c-0.834,-0.278 6.878,-5.349 8.059,-5.419c0.347,0.001 -0.07,0.765 -0.904,1.668l0.001,0z" data-name="Path 269" id="svg_1"/>
 </g>
</svg>