<svg xmlns="http://www.w3.org/2000/svg" width="578" height="128.602" viewBox="0 0 578 128.602">
  <g id="logo" transform="translate(-18 210.8)">
    <path id="Path_258" data-name="Path 258" d="M792.715-190.445v20.424l-2.987-1.32a43.141,43.141,0,0,0-29.108-1.459c-5.7,1.806-14.1,7.364-17.924,11.741a48.429,48.429,0,0,0-8.684,16.534,49.593,49.593,0,0,0-1.112,10.7c-.069,30.289,31.47,49.463,59.05,35.917,6.53-3.126,14.381-11.046,17.785-17.785,4.377-8.753,4.516-10.073,4.516-51.131v-36.82l-10.768-3.612L792.715-210.8Zm-11.949,38.209c6.808,2.918,11.949,10.421,11.949,17.715,0,11.393-8.128,19.591-19.452,19.66-7.85.069-14.311-4.168-17.785-11.6-4.932-10.56,1.806-23.9,13.408-26.816A23.281,23.281,0,0,1,780.766-152.236Z" transform="translate(-218.251 0)" fill="#116c73"/>
    <path id="Path_259" data-name="Path 259" d="M283.073-205.566l-9.726,3.335-.208,54.257L273-93.648h20.772l.208-23.481c.208-25.357.278-25.426,4.307-29.873,5.766-6.391,16.812-5.905,22.509.9,3.4,4.168,3.612,5.975,3.612,30.15v22.3H345.25v-24.176c0-21.4-.139-24.662-1.32-28.761-3.335-12.157-13.477-21.953-26.121-25.218-6.947-1.737-12.3-1.389-22.37,1.459l-1.6.417v-19.521c0-10.7-.208-19.521-.486-19.452C293.008-208.9,288.423-207.372,283.073-205.566Z" transform="translate(-77.849 -0.58)" fill="#116c73"/>
    <path id="Path_260" data-name="Path 260" d="M18-148.076v55.924H40.231v-43.767H91.639V-156.76H40.231v-26.4H91.639V-204H18Z" transform="translate(0 -2.076)" fill="#116c73"/>
    <path id="Path_261" data-name="Path 261" d="M402.785-172.263c-.9.973-2.5,4.446-3.543,7.642-1.806,5.558-1.876,6.322-1.459,14.172.486,8.753-.069,11.81-2.779,14.519-1.389,1.389-6.53,9.379-7.711,11.949A23.112,23.112,0,0,0,385-113.907c0,5.071.695,5.488,7.017,4.168,7.85-1.667,10.768-2.779,23.551-8.892,5.488-2.64,6.391-2.918,12.783-3.126,6.947-.278,12.227.625,12.227,2.015a6.589,6.589,0,0,1-1.389,2.5c-2.154,2.709-1.876,7.5.625,11.463,3.821,6.044,11.949,8.059,21.953,5.419,3.057-.764,6.669-1.737,7.989-2.084a8.916,8.916,0,0,1,7.642,1.389,63.3,63.3,0,0,0,12.852,6.461c6.044,2.223,9.031,2.64,9.031,1.181.069-3.057,1.181-4.1,6.808-6.322,3.126-1.181,6.808-2.5,8.128-2.848a84.569,84.569,0,0,1,18.618-3.126l7.086-.417,2.431,2.709a17.329,17.329,0,0,1,2.432,3.2c.069,1.25-1.737.347-3.751-1.876-2.154-2.293-2.5-2.431-6.6-2.431-3.821,0-4.307.139-3.543,1.042.973,1.181.695,1.25-1.528.417-2.987-1.112-17.785,2.64-25.01,6.252-3.4,1.737-3.4,3.613-.208,7.433,3.612,4.238,8.753,6.391,15.075,6.391,6.044,0,10.7-1.876,16.117-6.53,6.044-5.071,7.086-5.141,2.431-.069l-2.918,3.126h3.2a19.829,19.829,0,0,0,5.071-.695c2.709-1.042,3.682.278,1.042,1.389-2.5,1.042-3.126,2.64-2.5,6.669.556,3.751,2.154,7.017,3.821,7.92,1.042.556,1.737.139,3.821-2.223,1.806-2.223,2.362-3.4,2.084-4.585-.417-1.667.764-4.585,1.6-4.029.278.208.9-.695,1.389-1.876,2.223-5.488,2.362-5.627,6.739-6.252,2.293-.347,11.046-.695,19.452-.834,14.45-.139,15.7-.278,23.62-2.362a105.419,105.419,0,0,1,12.5-2.5c5.766-.625,7.294-1.459,7.225-4.1,0-1.181-.208-1.667-.417-1.112a4.569,4.569,0,0,1-1.181,1.6c-1.737,1.181-11.741-1.6-17.785-4.863-5.21-2.848-5.28-2.987-2.848-7.294,5.7-10.073,19.244-20.286,20.424-15.353.208.973.417.764.834-.695.556-2.223-.486-3.96-2.57-3.96-.695,0-2.918-1.042-4.932-2.293a135.65,135.65,0,0,0-16.117-8.2c-.764-.278-3.821-1.389-6.878-2.362-2.987-1.042-7.086-2.57-9.031-3.4a64.127,64.127,0,0,0-5.975-2.431c-1.32-.486-3.057-1.181-3.821-1.459-6.391-2.57-21.189-5.558-27.441-5.558-3.89,0-4.932-.278-5.7-1.25-.486-.764-1.945-2.5-3.2-3.96-2.154-2.431-2.432-2.57-4.029-1.667-1.112.556-1.945.625-2.223.208-.278-.347-2.223-2.015-4.307-3.682-3.126-2.431-4.168-2.918-5.836-2.57a26.644,26.644,0,0,1-4.307.417c-1.667,0-2.362.347-2.709,1.389-.278.973-1.042,1.389-2.432,1.389-1.32,0-2.015.417-2.293,1.389a3.959,3.959,0,0,1-2.154,2.084c-.973.347-1.806.973-1.806,1.389s-.764,1.042-1.737,1.389a2.4,2.4,0,0,0-1.737,2.084c0,.764-.486,1.389-1.042,1.389a6.175,6.175,0,0,0-2.987,1.876c-2.709,2.779-5.905,2.57-10.282-.556a60.222,60.222,0,0,0-16.187-8.2c-3.474-1.112-12.644-.973-15.631.278-5.21,2.154-9.448,8.823-9.448,14.8,0,1.806.625,2.987,2.848,5.21L451.831-141l-2.709.347c-4.1.556-11.81-.556-15.353-2.223-4.724-2.223-8.962-6.808-14.033-15.353-5.21-8.684-11.393-15.77-13.755-15.77A5.1,5.1,0,0,0,402.785-172.263Zm15.562,17.854a.5.5,0,0,1-.486.556c-.834-.069-6.878-9.1-7.5-11.115-.278-.973,1.389.9,3.751,4.168C416.4-157.535,418.277-154.687,418.346-154.409Zm55.368-7.017c1.181.486,1.6.9,1.042,1.112a3.5,3.5,0,0,1-2.432-.347,16.617,16.617,0,0,0-2.57-1.042c-.695-.278-.486-.417.486-.417A9.924,9.924,0,0,1,473.715-161.426ZM412.788-154.2c0,.347-1.25-.556-2.779-2.084-1.459-1.528-2.709-3.265-2.709-3.821s1.25.347,2.709,2.084C411.538-156.285,412.788-154.618,412.788-154.2Zm60.3-4.029c3.126,1.6,3.2,1.667.834,1.25a8.575,8.575,0,0,1-3.057-1.112,4.1,4.1,0,0,0-2.292-.625c-.9,0-1.6-.278-1.6-.625s-.556-.834-1.181-.973c-.695-.139-.069-.139,1.389,0A23.329,23.329,0,0,1,473.089-158.23Zm-7.5.208c0,.347.695.695,1.6.695a9.344,9.344,0,0,1,3.265,1.042c2.987,1.737-.556,1.181-4.516-.695-2.5-1.181-3.057-1.667-1.876-1.667C464.892-158.716,465.587-158.438,465.587-158.022Zm59.606-.208a17.563,17.563,0,0,1-3.821,0c-1.112-.139-.208-.278,1.876-.278S526.235-158.369,525.193-158.23Zm-66.067,1.32a1.407,1.407,0,0,1-1.32.069c-.556-.208-.347-.417.417-.417C458.987-157.327,459.4-157.119,459.126-156.91Zm5.488,1.459c2.015.834,2.362,1.25,1.389,1.459a2.473,2.473,0,0,1-2.015-.486,4.049,4.049,0,0,0-2.431-.764c-.9,0-1.389-.278-1.181-.695C460.932-156.91,461.488-156.841,464.614-155.451Zm-52.451,7.294c.347.695.486,1.25.278,1.25-.764,0-7.294-6.739-7.294-7.572C405.147-155.451,411.191-149.963,412.163-148.157Zm49.255-5c0,.347-.625.695-1.32.695a2.431,2.431,0,0,1-1.806-.695c-.278-.417.347-.695,1.32-.695S461.418-153.576,461.418-153.159Zm2.57,1.112a1.407,1.407,0,0,1-1.32.069c-.556-.208-.347-.417.417-.417C463.85-152.464,464.267-152.256,463.989-152.047Zm-4.446,1.459a5.25,5.25,0,0,1-2.084,0c-.695-.208-.278-.347.834-.347C459.473-150.936,459.959-150.8,459.543-150.588Zm20.424,1.32a1.407,1.407,0,0,1-1.32.069c-.556-.208-.347-.417.417-.417C479.828-149.685,480.245-149.477,479.967-149.268Zm-21.328.973c0,.347-1.042.695-2.362.695s-2.64-.347-2.848-.695c-.278-.417.695-.695,2.362-.695C457.389-148.99,458.639-148.713,458.639-148.3Zm18.063,0c0,.347-.139.695-.278.695-.208,0-.556-.347-.764-.695-.208-.417-.069-.695.278-.695A.714.714,0,0,1,476.7-148.3Zm-68.776,2.223c3.057,2.084,3.613,3.682.834,2.293-2.223-1.112-4.932-3.821-3.821-3.821A9.781,9.781,0,0,1,407.925-146.073Zm48.838.347a11.772,11.772,0,0,1-3.126,0c-.9-.139-.208-.278,1.528-.278S457.6-145.864,456.764-145.725Zm95.662,3.335a3,3,0,0,1-1.667,1.042c-1.181,0-6.322,5.488-7.711,8.267-2.015,4.029-1.25,10.421,2.293,17.715,1.806,3.751,2.918,7.086,2.918,8.614,0,5,6.878,12.783,8.684,9.865.208-.417,1.459-.695,2.779-.695s2.57.278,2.779.695c.278.417-.695.695-2.362.695-2.779,0-3.751.834-1.945,1.667.417.208-.278.208-1.6,0-4.932-.834-9.726-6.461-9.726-11.393,0-1.181-1.389-4.724-3.265-8.2-3.2-5.836-3.335-6.252-3.335-11.949,0-8.545,2.64-13.2,9.17-16.4C552.981-144.127,553.884-144.127,552.425-142.391Zm-131.023,1.6c-1.459.9-4.446,7.156-4.446,9.17,0,1.181-.278,2.084-.695,2.084-.973,0-.9-2.223.208-5.7.9-2.987,4.377-7.364,5.21-6.53A.674.674,0,0,1,421.4-140.793Zm-11.81.834c1.112,1.112-1.806.764-3.751-.417l-1.737-1.042,2.432.417A7.574,7.574,0,0,1,409.593-139.959Zm-2.223,4.307c-.556.556-1.181.556-2.362,0-1.528-.695-1.459-.764.834-.764C407.648-136.486,407.995-136.277,407.37-135.652Zm189.517,4.1c0,.973-.486,1.32-1.737,1.32s-1.737-.347-1.737-1.32a1.846,1.846,0,0,1,.9-1.667A1.779,1.779,0,0,1,596.887-131.553Zm-190.559.417a28.406,28.406,0,0,1-4.863,0c-1.181-.139,0-.278,2.64-.278C406.814-131.414,407.787-131.275,406.328-131.136Zm.556,3.613c-.417.347-3.057.834-5.905,1.042q-5.315.417-2.918-.208a8.546,8.546,0,0,0,2.709-1.042,10.843,10.843,0,0,1,3.612-.417C406.328-128.149,407.231-127.871,406.883-127.524Zm157.283,14.1a24.966,24.966,0,0,0,8.545,11.393c2.918,1.945,6.183,3.265,12.713,4.863l2.084.556-2.431.278c-4.863.486-12.366-2.64-16.4-6.947-3.96-4.238-4.377-4.863-5.905-9.031-1.32-3.751-1.737-9.17-.834-11.463.347-.834.695.278,1.042,3.265A43.827,43.827,0,0,0,564.166-113.421ZM405.147-122.73c0,.764-5.349,2.293-9.379,2.64l-3.474.347,3.474-1.112c1.945-.625,4.238-1.389,5.21-1.737C403.271-123.356,405.147-123.425,405.147-122.73Zm191.393,3.4c-3.821,3.821-6.252,8.545-5.627,10.976a4.045,4.045,0,0,0,2.848,2.5c2.918,1.112,3.126,2.015.417,2.015-2.779,0-5.627-2.431-5.627-4.863,0-2.987,2.709-7.433,6.878-11.254C600.152-124.259,600.916-123.772,596.54-119.326Zm-192.088,1.459c0,.556-2.292,1.6-7.156,3.2-3.821,1.25-5.627,1.389-5,.417a.765.765,0,0,1,1.042-.347.765.765,0,0,0,1.042-.347,2.431,2.431,0,0,1,1.806-.695,7.508,7.508,0,0,0,2.918-.834c.834-.417,2.015-1.042,2.57-1.32C403.063-118.493,404.452-118.562,404.452-117.867Zm53.7,3.4c2.362,1.32,3.96,2.64,3.96,3.265,0,.347-7.572-3.474-8.267-4.168C453.012-116.2,456.277-115.505,458.153-114.463Zm-5.905,5.558a9.3,9.3,0,0,1-2.779,0c-.9-.139-.347-.278,1.181-.278C452.179-109.253,452.873-109.114,452.248-108.906Zm3.612,2.293c0,.347-1.112.695-2.5.695-1.459,0-2.293-.278-2.015-.695.208-.417,1.32-.695,2.5-.695C454.957-107.308,455.861-107.03,455.861-106.613Zm95.87-.069c0,.9,6.878,4.238,8.753,4.238.9,0,1.667.278,1.667.695,0,1.25-4.446.695-7.225-.9s-5.419-4.655-3.96-4.655A.707.707,0,0,1,551.731-106.682ZM450.094-105.5a1.407,1.407,0,0,1-1.32.069c-.556-.208-.347-.417.417-.417C449.956-105.918,450.372-105.71,450.094-105.5Zm7.711,1.459a9.3,9.3,0,0,1-2.779,0c-.9-.139-.347-.278,1.181-.278C457.736-104.39,458.431-104.251,457.806-104.043Zm2.918,2.293c0,.347-.9.695-2.084.695-1.112,0-2.084-.347-2.084-.695,0-.417.973-.695,2.084-.695C459.82-102.445,460.724-102.167,460.724-101.75Zm68.082-.069c0,.347-1.181.764-2.57.973-1.459.208-3.751.695-5.071,1.042-1.32.417-3.821,1.112-5.558,1.528a23.847,23.847,0,0,0-4.516,1.528l-1.389.695,1.389-1.389c1.528-1.459,7.294-3.612,9.8-3.612a2.74,2.74,0,0,0,2.015-.695C523.456-102.584,528.805-102.653,528.805-101.819Zm2.779,1.459a63.762,63.762,0,0,1-5.905,2.5c-2.64.973-5.488,2.015-6.252,2.362a77.891,77.891,0,0,1-7.85,2.779c-1.112,0,4.724-3.335,8.2-4.655C527.972-100.5,534.294-102.1,531.584-100.361Zm27.441.695,2.779.417-2.64.556c-2.015.347-3.126.208-4.377-.625-2.084-1.389-2.154-2.015-.07-1.32A41.945,41.945,0,0,0,559.025-99.666ZM532.974-97.79a3.7,3.7,0,0,0-1.389.9c-.417.486-5.488,2.918-9.726,4.585-4.932,1.945-4.655.556.347-1.806,6.808-3.2,9.031-4.029,10.768-4.029C533.877-98.138,533.877-98.138,532.974-97.79Zm-1.389,4.377c-2.432,1.876-9.1,5.071-9.587,4.585-.486-.556-.417-.625,4.724-3.474C531.654-95.011,534.5-95.637,531.584-93.413Zm3.543,1.667c-1.876,1.945-5.975,4.1-7.156,3.751-.834-.278,6.878-5.349,8.059-5.419C536.378-93.413,535.961-92.649,535.127-91.746Z" transform="translate(-112.041 -11.235)" fill="#116c73"/>
    <path id="Path_262" data-name="Path 262" d="M143.282-158.357,133-154.884V-79.3h21.536v-41.335c0-22.717-.208-41.335-.486-41.266C153.7-161.9,148.909-160.3,143.282-158.357Z" transform="translate(-35.108 -14.929)" fill="#116c73"/>
    <path id="Path_263" data-name="Path 263" d="M200.2-160.305c-5.071.764-9.726,3.265-14.033,7.433-15.214,15.006-6.808,40.571,14.45,43.975a72.7,72.7,0,0,0,8.128.695c2.918,0,3.821.278,4.655,1.528,1.459,2.084,1.389,3.057-.278,4.724-1.32,1.32-2.293,1.389-18.757,1.389H177v22.231h17.924c12.366,0,19.035-.278,21.744-.973a25.851,25.851,0,0,0,19.382-29.247,25.466,25.466,0,0,0-14.519-19.313c-3.751-1.806-5.627-2.223-11.532-2.5-7.781-.486-9.379-1.181-9.379-4.307,0-3.751,1.459-4.1,18.2-4.1h15.145V-161l-15.075.069C210.555-160.861,202.149-160.583,200.2-160.305Z" transform="translate(-48.541 -15.203)" fill="#116c73"/>
    <path id="Path_264" data-name="Path 264" d="M721.094-94.835c0,.764.208.973.417.417a1.407,1.407,0,0,0-.069-1.32C721.233-96.016,721.025-95.6,721.094-94.835Z" transform="translate(-214.642 -35.101)" fill="#116c73"/>
    <path id="Path_265" data-name="Path 265" d="M719.094-90.835c0,.764.208.973.417.417a1.407,1.407,0,0,0-.069-1.32C719.233-92.016,719.025-91.6,719.094-90.835Z" transform="translate(-214.032 -36.322)" fill="#116c73"/>
    <path id="Path_266" data-name="Path 266" d="M717.184-86.97c-.208.556-.486,1.528-.695,2.154-.208.764.973,2.5,3.474,5,4.655,4.655,5.141,4.1.625-.695-2.709-2.918-3.126-3.751-2.779-5.488C718.227-88.081,717.74-88.845,717.184-86.97Z" transform="translate(-213.234 -37.478)" fill="#116c73"/>
    <path id="Path_267" data-name="Path 267" d="M631.109-50.52a13.857,13.857,0,0,0-.834,3.335,29.69,29.69,0,0,1-1.945,5.766c-1.389,2.918-1.389,3.057-.208,4.377,1.667,1.806,2.987,1.737,3.474-.208C632.637-42.253,632.29-52.6,631.109-50.52Z" transform="translate(-186 -48.848)" fill="#116c73"/>
    <path id="Path_268" data-name="Path 268" d="M625-37.882c0,.556.347.834.695.625a.845.845,0,0,0,.347-1.112C625.417-39.341,625-39.133,625-37.882Z" transform="translate(-185.31 -52.455)" fill="#116c73"/>
  </g>
</svg>
